<svg width="93" height="82" viewBox="0 0 93 82" fill="none" xmlns="http://www.w3.org/2000/svg">
<path d="M48.1437 59.4296C36.9032 58.9749 27.9955 56.7015 20.1483 50.6769C5.72642 39.3098 5.72642 20.8951 20.0423 9.52801C34.04 -1.61175 57.3695 -2.1801 71.6854 8.3913C83.8803 17.485 86.8495 31.8075 78.8963 44.084C77.8359 45.789 76.5633 47.8351 74.9727 48.5171C65.6409 52.723 57.3695 60.3389 48.1437 59.4296ZM56.7332 50.5632C57.1574 50.6769 57.6876 50.7906 58.1118 50.9042C61.9294 46.3574 62.7777 40.7875 62.8838 34.9903C62.9898 29.0794 62.8838 23.1685 62.8838 17.0303C68.6101 18.849 70.3068 21.0088 70.4128 25.8966C70.5189 31.5802 70.4128 37.2637 70.4128 43.402C79.6386 38.1731 79.6386 23.1685 73.382 15.8936C67.0194 8.73231 59.2783 4.75383 49.9465 5.32218C44.9624 5.54952 44.2201 6.45889 44.2201 11.8014C44.2201 25.1009 44.2201 38.4004 44.2201 51.6999C44.2201 52.6093 44.0081 53.746 44.3262 54.428C44.7504 55.4511 45.7047 54.9964 46.447 55.9058C47.1894 54.9964 48.2498 55.3374 48.4619 54.3144C48.886 52.9503 48.674 51.3589 48.674 49.8812C48.674 38.6278 48.674 27.3743 48.78 16.1209C48.78 14.0748 48.2498 11.2331 51.4311 11.0057C54.1882 10.7784 56.5212 12.9381 56.7332 16.0073C56.9453 17.7123 56.8393 19.4174 56.8393 21.1224C56.7332 30.8981 56.7332 40.7875 56.7332 50.5632ZM18.6637 19.8721C26.1928 18.9627 31.8131 21.0088 34.3581 28.0564C36.7971 34.8766 34.146 40.3328 29.162 44.1977C32.2372 47.6078 35.1004 50.7906 38.2817 54.3144C38.3878 53.1777 38.4938 52.2683 38.4938 51.4726C38.4938 39.0825 38.4938 26.6923 38.4938 14.4159C38.4938 12.9381 38.4938 11.1194 37.7515 10.0964C37.0092 8.95965 35.1004 7.70927 34.146 7.93661C28.1016 9.86902 22.6934 13.0518 18.6637 19.8721ZM29.5862 32.8306C29.6922 29.0794 26.723 25.8966 22.9054 25.6693C18.8758 25.4419 15.5884 28.6247 15.5884 32.6032C15.5884 36.6954 18.8758 39.9918 22.6933 39.8782C26.4049 39.7645 29.5862 36.5817 29.5862 32.8306Z" fill="#10212E"/>
<path d="M4.34778 80.9119V67.8398H0V65.2253H11.6648V67.8398H7.31699V80.9119H4.34778Z" fill="#10212E"/>
<path d="M12.8313 75.7981L15.6945 75.457C15.9066 76.4801 16.2247 77.2758 16.7549 77.7305C17.2851 78.1851 18.0274 78.4125 18.8758 78.4125C19.8302 78.4125 20.5725 78.1851 20.9966 77.7305C21.5269 77.2758 21.7389 76.8211 21.7389 76.2527C21.7389 75.9117 21.6329 75.5707 21.4208 75.3434C21.2087 75.116 20.8906 74.8887 20.3604 74.6613C20.0422 74.5477 19.1939 74.3203 18.0274 73.9793C16.4368 73.5246 15.2703 73.07 14.634 72.3879C13.6796 71.4786 13.2555 70.4555 13.2555 69.2051C13.2555 68.4094 13.4676 67.6137 13.8917 66.9317C14.3159 66.2497 14.9522 65.6813 15.6945 65.3403C16.4368 64.9993 17.4972 64.772 18.5576 64.772C20.3604 64.772 21.845 65.2267 22.6933 66.0224C23.6477 66.9317 24.0719 68.0684 24.1779 69.5462L21.2087 69.6598C21.1027 68.8641 20.7845 68.2958 20.3604 67.9548C19.9362 67.6137 19.2999 67.3864 18.4516 67.3864C17.6032 67.3864 16.8609 67.6137 16.4368 67.9548C16.1186 68.1821 16.0126 68.5231 16.0126 68.9778C16.0126 69.3188 16.1186 69.6598 16.4368 69.8872C16.8609 70.2282 17.7093 70.5692 19.1939 70.9102C20.6785 71.2512 21.7389 71.7059 22.3752 72.0469C23.1175 72.3879 23.6477 72.9563 23.9658 73.6383C24.39 74.3203 24.6021 75.116 24.6021 76.1391C24.6021 77.0484 24.39 77.8441 23.8598 78.6398C23.3296 79.4355 22.6933 80.0039 21.845 80.3449C20.9966 80.6859 19.9362 80.9132 18.6637 80.9132C16.7549 80.9132 15.3763 80.4586 14.4219 79.5492C13.6796 78.8672 13.0434 77.5031 12.8313 75.7981Z" fill="#10212E"/>
<path d="M27.2531 65.1127H30.2223V73.638C30.2223 75.0021 30.2223 75.9114 30.3284 76.2525C30.4344 76.9345 30.7525 77.3892 31.2828 77.8439C31.813 78.2985 32.4492 78.4122 33.2976 78.4122C34.1459 78.4122 34.7822 78.1849 35.2064 77.8439C35.6305 77.5028 35.8426 77.0481 35.9487 76.4798C36.0547 75.9114 36.0547 75.0021 36.0547 73.7517V64.999H39.0239V73.297C39.0239 75.2294 38.9179 76.4798 38.8118 77.2755C38.7058 78.0712 38.3876 78.7532 37.9635 79.2079C37.5393 79.7763 36.903 80.2309 36.2668 80.4583C35.6305 80.6856 34.5701 80.913 33.4036 80.913C32.0251 80.913 30.9646 80.6856 30.2223 80.3446C29.48 80.0036 28.9498 79.5489 28.5256 78.9806C28.1015 78.4122 27.7833 77.8439 27.6773 77.2755C27.4652 76.3661 27.3592 75.0021 27.3592 73.297V65.1127H27.2531Z" fill="#10212E"/>
<path d="M48.992 75.1159V72.3878H55.3546V78.6397C54.7183 79.3218 53.87 79.8901 52.5975 80.3448C51.431 80.7995 50.2645 81.0268 48.992 81.0268C47.4014 81.0268 46.1288 80.6858 44.9624 80.0038C43.7959 79.3218 42.9475 78.2987 42.4173 77.0483C41.8871 75.798 41.569 74.3202 41.569 72.8425C41.569 71.2511 41.8871 69.7734 42.5234 68.4093C43.1596 67.159 44.114 66.1359 45.3865 65.4539C46.3409 64.8855 47.5074 64.6582 48.886 64.6582C50.6887 64.6582 52.1733 65.1129 53.1277 65.9086C54.1881 66.7043 54.8244 67.841 55.1425 69.3187L52.2793 70.1144C52.0673 69.3187 51.6431 68.7504 51.1129 68.2957C50.5827 67.841 49.8404 67.6136 48.992 67.6136C47.7195 67.6136 46.659 68.0683 45.9167 68.9777C45.1744 69.8871 44.7503 71.1375 44.7503 72.9562C44.7503 74.7749 45.1744 76.2526 45.9167 77.162C46.659 78.0714 47.7195 78.5261 48.992 78.5261C49.6283 78.5261 50.2645 78.4124 50.9008 78.1851C51.537 77.9577 52.0673 77.6167 52.4914 77.2757V75.2296H48.992V75.1159Z" fill="#10212E"/>
<path d="M71.4732 80.9133H68.2919L67.0194 77.2758H61.187L60.0205 80.9133H56.8392L62.5656 65.113H65.7469L71.4732 80.9133ZM65.959 74.6614L63.9441 68.8642L61.9293 74.6614H65.959Z" fill="#10212E"/>
<path d="M72.9578 80.9133V65.113H77.4116L80.0627 75.9118L82.7138 65.113H87.1676V80.9133H84.4105V68.5232L81.4413 80.9133H78.5781L75.7149 68.5232V80.9133H72.9578Z" fill="#10212E"/>
<path d="M90.0308 80.9133V65.113H93V80.9133H90.0308Z" fill="#10212E"/>
</svg>
