<svg width="14" height="10" viewBox="0 0 14 10" fill="none" xmlns="http://www.w3.org/2000/svg">
<path d="M6.48332 6.65224C6.76836 6.95183 7.22962 6.95183 7.51465 6.65224L13.1648 0.696115C13.243 0.613941 13.2705 0.492231 13.2358 0.381703C13.2011 0.271175 13.1102 0.190791 13.0009 0.174047C12.9455 0.165437 12.8895 0.161121 12.8335 0.161134H1.16685C1.11043 0.161061 1.05408 0.165377 0.998263 0.174047C0.888967 0.190791 0.798018 0.271175 0.763315 0.381703C0.728612 0.492231 0.756109 0.613941 0.834347 0.696115L6.48332 6.65224Z" fill="#0D4398"/>
<path d="M13.9347 1.28771C13.8948 1.26986 13.8486 1.27935 13.818 1.3117L10.2013 5.12421C10.1445 5.18441 10.1445 5.28168 10.2013 5.34189L13.1431 8.44294C13.2569 8.55867 13.3026 8.73012 13.2626 8.89139C13.2226 9.05265 13.1032 9.17864 12.9503 9.22092C12.7973 9.2632 12.6346 9.2152 12.5247 9.09537L9.583 5.99432C9.55564 5.96541 9.51849 5.94916 9.47975 5.94916C9.44101 5.94916 9.40386 5.96541 9.3765 5.99432L8.13458 7.30349C7.50819 7.96343 6.49298 7.96343 5.86658 7.30349L4.6235 5.99555C4.56639 5.93567 4.47411 5.93567 4.417 5.99555L1.47525 9.0966C1.30351 9.27129 1.03063 9.26866 0.861955 9.09068C0.693275 8.91269 0.691034 8.62504 0.856917 8.44417L3.79867 5.34312C3.85547 5.28291 3.85547 5.18564 3.79867 5.12544L0.182 1.31293C0.15156 1.28026 0.105184 1.27073 0.0653333 1.28894C0.0261597 1.30615 0.000467412 1.34629 0 1.39102V8.77007C0 9.4493 0.522334 9.99992 1.16667 9.99992H12.8333C13.4777 9.99992 14 9.4493 14 8.77007V1.39102C14.0002 1.34579 13.9743 1.30496 13.9347 1.28771Z" fill="#0D4398"/>
</svg>
