<svg width="12" height="11" viewBox="0 0 12 11" fill="#F3F7FF" xmlns="http://www.w3.org/2000/svg">
<path d="M11.3365 7.91809L10.1105 6.7502C9.84682 6.49868 9.48893 6.35734 9.11572 6.35734C8.74251 6.35734 8.38463 6.49868 8.12097 6.7502L7.87097 6.98825C6.63884 6.00521 5.50071 4.92004 4.46996 3.74549L4.71996 3.50743C5.26807 2.98398 5.26807 2.13692 4.71996 1.61348L3.49146 0.447012C2.93431 -0.0598113 2.0571 -0.0598113 1.49995 0.447012L0.829952 1.08785C0.166362 1.72428 0.0620393 2.71647 0.579952 3.46553C2.5775 6.33162 5.15694 8.78828 8.16647 10.6909C8.9554 11.1793 9.99472 11.0804 10.6665 10.4529L11.339 9.81205C11.6031 9.56115 11.7515 9.22053 11.7515 8.86531C11.7515 8.51009 11.6031 8.16946 11.339 7.91857L11.3365 7.91809Z" fill="#FFFFFF"/>
</svg>
